<svg xmlns="http://www.w3.org/2000/svg" width="57.686" height="44.837" viewBox="0 0 57.686 44.837">
  <path id="icône_accueil" data-name="icône accueil" d="M48.931,60.43V74.783a2.4,2.4,0,0,1-2.4,2.4H34.909a1.205,1.205,0,0,1-1.2-1.2V64.767a1.205,1.205,0,0,0-1.2-1.2H25.294a1.205,1.205,0,0,0-1.2,1.2V75.985a1.205,1.205,0,0,1-1.2,1.2H11.271a2.4,2.4,0,0,1-2.4-2.4V60.43a1.2,1.2,0,0,1,.441-.931l18.83-15.5a1.221,1.221,0,0,1,1.532,0L48.5,59.5a1.226,1.226,0,0,1,.431.931Zm8.373-6.1-8.373-6.9V33.557a1.205,1.205,0,0,0-1.2-1.2H42.12a1.205,1.205,0,0,0-1.2,1.2v7.272l-8.964-7.382a4.8,4.8,0,0,0-6.11,0L.494,54.33a1.205,1.205,0,0,0-.16,1.693l2.554,3.1a1.205,1.205,0,0,0,1.693.16l23.558-19.4a1.221,1.221,0,0,1,1.532,0l23.558,19.4a1.205,1.205,0,0,0,1.693-.16l2.554-3.1A1.205,1.205,0,0,0,57.3,54.33Z" transform="translate(-0.059 -32.35)" fill="#333"/>
</svg>
