<svg xmlns="http://www.w3.org/2000/svg" width="53.301" height="53.301" viewBox="0 0 53.301 53.301">
  <path id="icône_autres_projets" data-name="icône autres projets" d="M34.651,8A26.651,26.651,0,1,0,61.3,34.651,26.646,26.646,0,0,0,34.651,8ZM50.125,37.66a1.293,1.293,0,0,1-1.29,1.29H38.949v9.887a1.293,1.293,0,0,1-1.29,1.29H31.642a1.293,1.293,0,0,1-1.29-1.29V38.949H20.466a1.293,1.293,0,0,1-1.29-1.29V31.642a1.293,1.293,0,0,1,1.29-1.29h9.887V20.466a1.293,1.293,0,0,1,1.29-1.29H37.66a1.293,1.293,0,0,1,1.29,1.29v9.887h9.887a1.293,1.293,0,0,1,1.29,1.29Z" transform="translate(-8 -8)" fill="#333"/>
</svg>
