<svg xmlns="http://www.w3.org/2000/svg" width="50.134" height="44.506" viewBox="0 0 50.134 44.506">
  <path id="icône_élément" data-name="icône élément" d="M50.134,20.862a5.537,5.537,0,0,0-2.785-4.791V2.782A2.811,2.811,0,0,0,44.563,0a2.781,2.781,0,0,0-1.739.61l-7.4,5.914a21.143,21.143,0,0,1-13.142,4.6H5.57A5.566,5.566,0,0,0,0,16.69v8.345A5.566,5.566,0,0,0,5.57,30.6H8.5a21.1,21.1,0,0,0-.19,2.782,22,22,0,0,0,2.225,9.644,2.732,2.732,0,0,0,2.472,1.483h6.465a2.764,2.764,0,0,0,2.254-4.395,11.06,11.06,0,0,1-2.276-6.732,10.506,10.506,0,0,1,.384-2.782h2.444a21.138,21.138,0,0,1,13.141,4.6l7.4,5.914a2.785,2.785,0,0,0,4.524-2.171V25.654A5.538,5.538,0,0,0,50.134,20.862ZM41.778,33.155l-2.877-2.3a26.725,26.725,0,0,0-16.62-5.822V16.69A26.725,26.725,0,0,0,38.9,10.867l2.877-2.3Z" fill="#333"/>
</svg>
