<svg xmlns="http://www.w3.org/2000/svg" width="40" height="45.714" viewBox="0 0 40 45.714">
  <path id="icône_livre" data-name="icône livre" d="M40,32.143v-30A2.138,2.138,0,0,0,37.857,0H8.571A8.574,8.574,0,0,0,0,8.571V37.143a8.574,8.574,0,0,0,8.571,8.571H37.857A2.138,2.138,0,0,0,40,43.571V42.143a2.16,2.16,0,0,0-.795-1.67,19.911,19.911,0,0,1,0-6.67A2.128,2.128,0,0,0,40,32.143ZM11.429,11.964a.537.537,0,0,1,.536-.536H30.893a.537.537,0,0,1,.536.536V13.75a.537.537,0,0,1-.536.536H11.964a.537.537,0,0,1-.536-.536Zm0,5.714a.537.537,0,0,1,.536-.536H30.893a.537.537,0,0,1,.536.536v1.786a.537.537,0,0,1-.536.536H11.964a.537.537,0,0,1-.536-.536ZM34.054,40H8.571a2.857,2.857,0,0,1,0-5.714H34.054A32.143,32.143,0,0,0,34.054,40Z" fill="#333"/>
</svg>
