<svg xmlns="http://www.w3.org/2000/svg" width="28.748" height="42.723" viewBox="0 0 28.748 42.723">
  <g id="logo" transform="translate(1.28 1.25)">
    <path id="Tracé_20" data-name="Tracé 20" d="M51.883,73.9v8.106c0,5.75-5.812,10.43-13,10.43s-13-4.649-13-10.43L25.7,74.542" transform="translate(-25.7 -52.213)" fill="none" stroke="#333" stroke-linecap="round" stroke-miterlimit="10" stroke-width="2.5"/>
    <line id="Ligne_3" data-name="Ligne 3" x2="5.2" y2="1.009" transform="translate(16.028 22.91)" fill="none" stroke="#333" stroke-linecap="round" stroke-miterlimit="10" stroke-width="2.5"/>
    <path id="Tracé_21" data-name="Tracé 21" d="M43,28.523V14.331A2.63,2.63,0,0,1,45.631,11.7h0a2.63,2.63,0,0,1,2.631,2.631V28.523" transform="translate(-37.708 -9.039)" fill="none" stroke="#333" stroke-linecap="round" stroke-miterlimit="10" stroke-width="2.5"/>
    <path id="Tracé_22" data-name="Tracé 22" d="M28.531,59.642h0A2.63,2.63,0,0,1,25.9,57.012V51.231A2.63,2.63,0,0,1,28.531,48.6h0a2.63,2.63,0,0,1,2.631,2.631v5.781A2.65,2.65,0,0,1,28.531,59.642Z" transform="translate(-25.839 -34.652)" fill="none" stroke="#333" stroke-miterlimit="10" stroke-width="2.5"/>
    <path id="Tracé_23" data-name="Tracé 23" d="M73.969,66.159a2.622,2.622,0,0,1-2.08-3.089h0a2.622,2.622,0,0,1,3.089-2.08l6.79,1.315a2.622,2.622,0,0,1,2.08,3.089h0" transform="translate(-57.727 -43.218)" fill="none" stroke="#333" stroke-miterlimit="10" stroke-width="2.5"/>
    <path id="Tracé_24" data-name="Tracé 24" d="M60.3,20.007V5.631A2.63,2.63,0,0,1,62.931,3h0a2.63,2.63,0,0,1,2.631,2.631V20.007" transform="translate(-49.717 -3)" fill="none" stroke="#333" stroke-miterlimit="10" stroke-width="2.5"/>
    <path id="Tracé_25" data-name="Tracé 25" d="M77.6,32.357V22.631A2.63,2.63,0,0,1,80.231,20h0a2.63,2.63,0,0,1,2.631,2.631v9.7" transform="translate(-61.725 -14.8)" fill="none" stroke="#333" stroke-linecap="round" stroke-miterlimit="10" stroke-width="2.5"/>
  </g>
</svg>
